HIERARCHY
ROOT Hips
{
	OFFSET -3.958830 18.904000 13.208200
	CHANNELS 6 Xposition Yposition Zposition Zrotation Yrotation Xrotation 
	JOINT LHipJoint
	{
		OFFSET 0.000000 0.000000 0.000000
		CHANNELS 3 Zrotation Yrotation Xrotation
		JOINT LeftUpLeg
		{
			OFFSET 1.800000 -1.400000 0.085000
			CHANNELS 3 Zrotation Yrotation Xrotation
			JOINT LeftLeg
			{
				OFFSET 2.215000 -6.000000 0.000000
				CHANNELS 3 Zrotation Yrotation Xrotation
				JOINT LeftFoot
				{
					OFFSET 2.500000 -6.900000 0.000000
					CHANNELS 3 Zrotation Yrotation Xrotation
					JOINT LeftToeBase
					{
						OFFSET 0.200000 -0.500000 1.950000
						CHANNELS 3 Zrotation Yrotation Xrotation
						End Site
						{
							OFFSET 0.000000 0.000000 0.000000
						}
					}
				}
			}
		}
	}
	JOINT RHipJoint
	{
		OFFSET 0.000000 0.000000 0.000000
		CHANNELS 3 Zrotation Yrotation Xrotation
		JOINT RightUpLeg
		{
			OFFSET -1.800000 -1.400000 0.085000
			CHANNELS 3 Zrotation Yrotation Xrotation
			JOINT RightLeg
			{
				OFFSET -2.215000 -6.000000 0.000000
				CHANNELS 3 Zrotation Yrotation Xrotation
				JOINT RightFoot
				{
					OFFSET -2.500000 -6.900000 0.000000
					CHANNELS 3 Zrotation Yrotation Xrotation
					JOINT RightToeBase
					{
						OFFSET -0.200000 -0.500000 1.950000
						CHANNELS 3 Zrotation Yrotation Xrotation
						End Site
						{
							OFFSET 0.000000 0.000000 0.000000
						}
					}
				}
			}
		}
	}
	JOINT LowerBack
	{
		OFFSET 0.000000 0.000000 0.000000
		CHANNELS 3 Zrotation Yrotation Xrotation
		JOINT Spine
		{
			OFFSET -0.087000 1.940000 -0.288900
			CHANNELS 3 Zrotation Yrotation Xrotation
			JOINT Spine1
			{
				OFFSET 0.000000 1.950000 0.060000
				CHANNELS 3 Zrotation Yrotation Xrotation
				JOINT Neck
				{
					OFFSET 0.000000 0.000000 0.000000
					CHANNELS 3 Zrotation Yrotation Xrotation
					JOINT Neck1
					{
						OFFSET 0.000000 1.600000 0.340000
						CHANNELS 3 Zrotation Yrotation Xrotation
						JOINT Head
						{
							OFFSET 0.000000 1.667000 -0.240000
							CHANNELS 3 Zrotation Yrotation Xrotation
							End Site
							{
								OFFSET 0.000000 0.000000 0.000000
							}
						}
					}
				}
				JOINT LeftShoulder
				{
					OFFSET 0.000000 0.000000 0.000000
					CHANNELS 3 Zrotation Yrotation Xrotation
					JOINT LeftArm
					{
						OFFSET 2.700000 1.550000 -0.730000
						CHANNELS 3 Zrotation Yrotation Xrotation
						JOINT LeftForeArm
						{
							OFFSET 5.450000 0.000000 0.000000
							CHANNELS 3 Zrotation Yrotation Xrotation
							JOINT LeftHand
							{
								OFFSET 3.450000 0.000000 0.000000
								CHANNELS 3 Zrotation Yrotation Xrotation
								JOINT LeftHandIndex1
								{
									OFFSET 0.750000 0.000000 0.000000
									CHANNELS 3 Zrotation Yrotation Xrotation
									End Site
									{
										OFFSET 0.000000 0.000000 0.000000
									}
								}
							}
						}
					}
				}
				JOINT RightShoulder
				{
					OFFSET 0.000000 0.000000 0.000000
					CHANNELS 3 Zrotation Yrotation Xrotation
					JOINT RightArm
					{
						OFFSET -2.700000 1.550000 -0.730000
						CHANNELS 3 Zrotation Yrotation Xrotation
						JOINT RightForeArm
						{
							OFFSET -5.450000 0.000000 0.000000
							CHANNELS 3 Zrotation Yrotation Xrotation
							JOINT RightHand
							{
								OFFSET -3.450000 0.000000 0.000000
								CHANNELS 3 Zrotation Yrotation Xrotation
								JOINT RightHandIndex1
								{
									OFFSET -0.750000 0.000000 0.000000
									CHANNELS 3 Zrotation Yrotation Xrotation
									End Site
									{
										OFFSET 0.000000 0.000000 0.000000
									}
								}
							}
						}
					}
				}
			}
		}
	}
}
MOTION
Frames: 7
Frame Time: 0.016667
-3.502120 18.150150 1.099750 2.342971 -25.954429 -12.824666 -14.947113 11.253036 5.568938 -13.678490 -8.550553 -51.984994 3.196625 12.067815 66.431525 1.120700 11.640072 0.497528 0.163960 0.269380 -0.217990 18.545601 -11.410952 2.444345 -3.036881 1.033500 5.114077 -0.199270 -5.953354 26.480773 -1.137240 -5.503975 2.233062 -0.014040 0.474150 0.587770 -4.315363 1.291570 -8.504483 13.539869 4.550197 42.251383 -5.830072 9.747909 18.456581 2.017087 -3.412645 -18.432705 -2.617848 6.795192 72.380694 2.299470 -0.333460 -9.240620 -14.172131 -20.470838 12.063753 -48.038448 16.916260 -21.582590 -51.520802 -42.750435 9.387665 -3.318719 3.134627 0.753700 -0.004820 0.574190 0.341550 10.577761 32.152627 11.452204 47.384548 35.958012 -8.369111 59.101950 75.487682 29.489705 1.293962 -2.179154 -0.010050 0.413810 0.208120 0.327980 
-3.609690 18.164230 1.251720 0.837945 -26.446477 -10.823932 -14.855834 11.358525 5.187274 -12.843486 -6.780841 -48.536736 -0.326879 11.674875 55.695360 0.699029 9.738971 1.083537 0.080340 0.133070 -0.240210 18.574113 -11.658471 2.708626 -2.020739 0.115825 5.996826 0.061750 -6.120174 23.526521 -1.098685 -5.431883 2.285431 -0.095150 0.510830 0.612040 -4.459733 1.731322 -8.390318 13.821591 5.818455 38.194586 -4.473963 10.601105 17.305662 1.404660 -1.988889 -17.539024 2.290557 3.840991 71.855385 1.154850 1.136690 -5.541590 -13.014461 -17.516303 11.804123 -49.055148 17.623305 -20.981500 -56.998499 -42.160998 11.208562 -3.374698 3.172675 0.738640 0.053930 0.529380 0.327480 10.546162 28.206109 10.120166 52.694028 34.955862 -5.540020 54.111916 71.882176 25.644373 1.762919 -1.840440 -0.035550 0.359760 0.232750 0.303590 
-3.694490 18.160470 1.420510 -1.219096 -26.952842 -8.032582 -14.731180 11.392923 4.841436 -11.762105 -5.430165 -45.320525 -3.677199 10.610025 44.730238 0.333675 7.652681 1.773921 0.009830 0.039010 -0.257720 18.649627 -11.897924 2.963400 -1.043050 -0.621854 6.293551 1.045995 -6.406548 20.794013 -1.063190 -5.367856 2.333999 -0.172180 0.519610 0.627860 -4.733223 2.248279 -8.286237 15.228970 6.426716 33.267985 -3.763561 10.686005 16.182862 1.079513 -1.335698 -16.854245 4.400554 1.789653 71.245297 -1.102480 2.007360 -2.386800 -12.058293 -14.462974 11.682809 -50.044892 19.111154 -20.319314 -62.522080 -40.338657 12.384241 -3.402594 3.203117 0.685690 0.094940 0.500800 0.313320 10.261107 24.189727 8.825746 58.387955 33.499127 -2.443078 50.874586 68.211876 22.922665 2.116109 -1.656934 -0.019950 0.300880 0.237780 0.305480 
-3.767920 18.156480 1.578840 -3.179299 -27.493193 -5.668275 -14.595074 11.446013 4.504079 -11.003865 -4.339528 -41.873871 -5.998459 8.933682 34.383190 -0.004597 5.720449 2.477734 -0.105750 -0.110310 -0.351440 18.743860 -12.101505 3.200200 -0.168887 -1.279649 6.879858 1.707142 -6.601815 18.240243 -1.029352 -5.357083 2.377038 -0.259150 0.618510 0.640010 -5.051949 2.643324 -8.190381 16.645143 6.458526 29.037806 -3.509378 10.173771 15.430490 0.484376 -1.601582 -16.577554 4.419219 2.029317 70.790588 -0.780250 2.862520 1.162650 -11.596756 -12.239409 12.162338 -52.708949 21.930373 -21.114430 -66.572353 -41.129322 14.071454 -3.433462 3.211300 0.658270 0.161020 0.435480 0.311190 11.040930 21.516494 7.876442 61.110171 32.328626 -0.650605 47.580115 63.242487 20.060725 2.231550 -1.553434 -0.052080 0.300780 0.303940 0.319060 
-3.850570 18.138490 1.726610 -4.446233 -26.959127 -3.131218 -14.520888 11.345608 4.322981 -10.952695 -4.158247 -39.175202 -7.427815 7.173032 25.581686 -0.274822 4.197087 3.061318 -0.189440 -0.228870 -0.380740 18.831175 -12.177936 3.328380 0.566939 -1.815328 6.996580 2.506380 -6.721263 15.682089 -0.989917 -5.303998 2.420240 -0.314480 0.664440 0.625740 -5.272295 2.979615 -8.144233 16.948628 6.976495 24.383380 -3.094879 9.718279 15.047053 0.356174 -0.952466 -16.359273 6.281341 0.537651 70.462544 -1.814070 3.471100 3.584200 -10.655172 -10.506971 12.465763 -54.578605 23.506655 -21.224371 -70.000701 -41.583450 15.742712 -3.455569 3.188776 0.651830 0.204490 0.384390 0.288990 10.416319 18.638820 7.096185 64.755524 31.302512 1.175368 45.498798 59.148561 17.929379 2.318624 -1.473249 -0.100380 0.306840 0.344190 0.298710 
-3.950060 18.094300 1.869590 -5.656409 -25.978154 -0.446449 -14.486230 11.204131 4.169190 -10.990975 -4.081753 -36.848948 -7.961798 5.561891 17.874627 -0.444431 3.130679 3.512256 -0.293860 -0.369930 -0.426300 18.916300 -12.153172 3.412596 1.987349 -2.364501 7.006404 2.768465 -6.669633 13.540595 -0.939708 -5.269085 2.460853 -0.380000 0.742980 0.628430 -5.433277 3.204352 -8.084950 16.364896 7.484021 19.319858 -2.054797 8.822116 14.938254 0.204854 -0.074691 -15.858088 8.342576 -0.868186 68.625141 -3.517320 4.392480 6.443310 -10.608898 -8.824738 12.786703 -55.460410 25.399437 -20.771867 -74.472088 -42.308470 18.212093 -3.515470 3.188785 0.608160 0.280040 0.312650 0.274510 10.826831 15.599063 6.082910 68.822980 30.917920 3.684570 41.451555 54.489087 15.063030 2.359291 -1.431279 -0.145410 0.306510 0.389090 0.293110 
-4.047330 18.055490 1.984080 -6.860028 -24.632537 1.290384 -14.485524 11.101402 3.998108 -10.682903 -3.842303 -34.688389 -8.162806 4.579907 12.717343 -0.566290 2.667454 3.718311 -0.382160 -0.488290 -0.473340 18.977217 -12.039973 3.522970 3.740119 -3.078410 7.989300 2.938865 -6.628438 11.000298 -0.931560 -5.304545 2.469627 -0.426570 0.805080 0.637780 -5.516325 3.268735 -8.010285 16.199600 7.803689 15.829843 -1.532610 8.360723 14.803405 0.602823 0.919818 -15.439951 10.370430 -2.287497 67.210893 -4.921310 4.816190 7.830280 -11.462201 -7.940525 12.924441 -55.386999 26.316069 -19.957816 -79.742499 -43.480939 21.527440 -3.605901 3.188454 0.595810 0.344060 0.254030 0.245550 11.029509 13.439870 5.343983 68.997619 29.275759 3.949629 41.513583 51.877983 14.650490 2.350685 -1.380652 -0.190580 0.314650 0.457010 0.273710 
